<svg xmlns="http://www.w3.org/2000/svg" viewBox="0 0 50.51 36.84"><defs><style>.a{fill:#fff;}.b{fill:none;}.b,.c{stroke:#199bd3;stroke-linecap:round;stroke-linejoin:round;}.c{fill:#199bd3;}</style></defs><circle class="a" cx="25.3" cy="18.32" r="17.92"/><path class="b" d="M18.62,32.38A15.55,15.55,0,0,1,9.91,15.83"/><path class="b" d="M11.81,10.52A15.54,15.54,0,1,1,25.25,33.86c-.42,0-.84,0-1.25,0"/><circle class="b" cx="25.25" cy="18.42" r="17.92"/><path class="c" d="M7.34,17.92.5,18a12,12,0,0,0,5.26-2.63A12,12,0,0,0,9,10.87"/><path class="c" d="M43.17,17.92,50,18a12,12,0,0,1-5.26-2.63,12,12,0,0,1-3.24-4.45"/></svg>