<svg xmlns="http://www.w3.org/2000/svg" viewBox="0 0 691.6 361.53"><defs><style>.a{fill:#faf9ff;}</style></defs><path class="a" d="M391.51,304.89c-9.8,1.22-15.61,2.94-39.93,10.43-70,21.56-73.22,23.22-83.72,25.93-34.72,9-61.89,7.05-98.92,4.43C80.47,339.4,31.6,335.93,10.4,299.76c-26.09-44.52,0-121.14,44.27-146.41,30.5-17.39,49.56,1,89.88-19.06,39.61-19.73,32.54-43.12,70.82-68.78C252.84,40.39,300.56,38,355.65,34.18c13.29-.92,35.27-1.84,62.32-11.89,23.84-8.85,22.21-13.87,39.15-18.75,36-10.37,71,4.45,93.29,13.62s18.76,12.91,46.31,25.19c46.72,20.83,62.7,12.68,78.6,31.06,12.76,14.75,14.06,33.4,15.9,59.91,1.92,27.71-3.93,30-4.49,64.4-.66,41.22,7.62,45.26,3.26,74.18-2.42,16.06-6,39.74-24.45,58.29-15.47,15.52-33.45,19.48-57.88,24.86-23.31,5.13-47.87,10.53-75,2-33.23-10.41-28.83-28.7-67.25-43.62C435.25,301.76,406.67,303,391.51,304.89Z"/></svg>