<svg xmlns="http://www.w3.org/2000/svg" viewBox="0 0 286.01 143.56"><path d="M33,35.59c3.76-4.09,3.65-8.53,5.15-12.31.71-1.79.48-4.61,2.74-4.9,2.7-.35,4,2.33,4.81,4.4a80.84,80.84,0,0,1,6.5,29.09c.23,10.61,0,21.24,0,31.86L53.6,84c3.23-8.72,6.45-17.44,9.8-26.51,3.81,2.16,5.67,5.46,5.69,9,.06,11.44,4.55,19.32,16,22.76a12,12,0,0,1,5.78,4.64c.88,1.21,2.9,2.49,1,4.18-1.53,1.35-2.72-.11-3.8-1.14-3.11-3-7.1-4.22-11-5.74-1.89-.75-2.61-.43-3,1.62a36.73,36.73,0,0,0-.94,9.91,16.67,16.67,0,0,1,.15,4c-.48,2.61.36,6.91-3,7-3.53.11-4.57-4-4.8-7.17-.61-8.47-.89-17-1.37-25.45-.1-1.77.35-3.69-1-5.29-1.71.68-1.7,2.26-2,3.64-2.74,10.81-5.47,21.62-8.26,32.42-.51,2-.51,5-3.36,4.57-2.41-.38-3.32-2.82-3.28-5.49.27-15,0-30,1.14-44.95a104.38,104.38,0,0,0-2.4-30.8,10.56,10.56,0,0,0-.59-1.91c-.78-1.72-.88-4.59-3.14-4.42-1.92.14-1.74,2.84-2.09,4.59-5.7,28.77-9.27,57.88-14,86.8a11.58,11.58,0,0,1-.34,2c-.62,1.73.11,5-2.39,4.68-2.3-.31-3.69-2.89-3.56-5.8.37-8.67,1-17.35,3.05-25.77C24.85,83,27,70.55,29.07,58.08A56.17,56.17,0,0,0,24.19,24c-.56-1.16-.9-2.89-2.55-2.53-1.31.29-1.94,1.78-2.25,3.1-3,13.14-7.62,26-8,39.6-.49,18.83-3,37.53-3.48,56.35-.06,2.37-.14,5.3-3,5.55s-3.27-2.9-3.77-5c-2.53-10.8-.23-21.57.61-32.32.91-11.62,3.58-23,3.91-34.74a33.16,33.16,0,0,0,0-6c-.6-3.84-1.09-7.37,3.93-8.72,1.7-.46,1.56-2.37,1.9-3.8,1.47-6.19,3.37-12.23,7-17.51,2.7-3.88,5-3.81,7.51.22A62,62,0,0,1,33,35.59Z"/><path d="M217,105.61c1.83-4.93,3.65-9.86,5.51-14.78.46-1.23.85-2.84,2.32-3s2.09,1.42,2.8,2.54c2.49,4,3.53,8.48,4.89,12.88,2.2-.3,2.77-2.09,3.83-3.26,3.85-4.25,5.89-4,8.22,1.42,2.91,6.72,5.77,13.46,8.52,20.25,5.24,12.93,12.11,18.29,29.64,16.19,1.4-.16,2.9-.52,3.2,1.26.38,2.24-1.59,2.61-3.15,3.15-13.09,4.55-31-3.82-36.9-17.33-2.51-5.73-5-11.46-6.43-18.29-2.94,2.44-3.52,5.5-5,8-2.16,3.63-4.19,3.75-6.63.27-2.27-3.25-2.05-7.24-3.26-11.58-2.94,4.16-3.45,8.63-5.15,12.58-1,2.24-.48,6.27-3.84,6-2.91-.22-4.16-3.46-4.68-6.42a5,5,0,0,0-1.53-3,9.66,9.66,0,0,0-.34,1.75c-.23,7.28-1.62,9.58-8.88,10.12-14.18,1.06-26.62-3.37-26-22.62.24-8.15,3.3-15.18,10.05-20.34,3.37-2.58,5-1.43,6.11,2.07,1.36,4.15.35,8.46.61,13.57,6-5.35,13.31-7.21,18.11-13.22,2.46-3.08,3.56.48,4,2.37C214.44,92.5,215.62,98.86,217,105.61ZM200.22,97c-6.21,3-9.07,7.85-11.87,12.62-1.33,2.27-2.64,4.16-6,3.51a12.77,12.77,0,0,0,7.3,5.09c5.13,1.65,5.62,1.35,5.5-4.07-.07-3.43,1.15-6.49,2.25-9.6C198.18,102.31,199.07,100.08,200.22,97Zm-19,12.77c3.68-7.14,5.36-16.66,4-22.53C180.63,94.32,179.37,101.18,181.26,109.79Zm19.35,4.86c5.53-4.83,8.58-13.94,6.73-19.07A28.92,28.92,0,0,0,200.61,114.65Z"/><path d="M131.28,88.61c-.18-18.34,2-34.4,2.35-50.55,0-1.47.09-3.37,1-4.31,4.7-5.13,4.88-11.88,6.76-18C144,7.18,149.9,3.15,158.41,1c9.52-2.43,18,0,26.49,3.36a15.66,15.66,0,0,1,5.86,25.09A85,85,0,0,1,173.6,43.87c-9.54,6.12-12.16,14.89-11.53,25.27a233,233,0,0,1-.36,37.91,37.35,37.35,0,0,1-4.49,13.62c-3.92,7.39-9.81,7.23-15.57,1.15C132,111.66,128.94,99.93,131.28,88.61Zm7.15,5.3c.36,4.52,1,8.5.92,12.47a14.18,14.18,0,0,0,5.15,11.4c4.55,4,7.29,3.49,9.68-2.27a58.4,58.4,0,0,0,4.23-16.38c1-9,.4-18-.27-27-1.13-15,4-26.61,16.32-35.29a63.91,63.91,0,0,0,13-11.68c5-6.2,3.61-12.91-3.51-16.55a41.12,41.12,0,0,0-19.75-4.53C152,4.33,148.22,7,145.1,18.86c-5.22,19.83-6,40.12-5.95,60.49,0,1.62-.06,3.19,2.38,2.18a1.71,1.71,0,0,1,2.44,1c.44,1.16-.51,1.88-1.27,2.44C139.5,87.37,137.72,90.33,138.43,93.91Z"/><path d="M107.06,106.81c-.15,2.09-1.08,3.9-3,4-2.81.23-3.27-2.29-3.52-4.38-.21-1.74.37-3.37,2.61-3.29S106.57,104.78,107.06,106.81Z"/></svg>